HIERARCHY
ROOT root
{
	OFFSET 0.000000 0.000000 0.000000
	CHANNELS 6 Xposition Yposition Zposition Zrotation Yrotation Xrotation
	JOINT lhip
	{
		OFFSET 0.058581 -0.082280 -0.017664
		CHANNELS 3 Zrotation Yrotation Xrotation
		JOINT lknee
		{
			OFFSET 0.043451 -0.386469 0.008037
			CHANNELS 3 Zrotation Yrotation Xrotation
			JOINT lankle
			{
				OFFSET -0.014790 -0.426874 -0.037428
				CHANNELS 3 Zrotation Yrotation Xrotation
				JOINT ltoe
				{
					OFFSET 0.041054 -0.060286 0.122042
					CHANNELS 3 Zrotation Yrotation Xrotation
					End Site
					{
						OFFSET 0.000000 0.000000 0.000000
					}
				}
			}
		}
	}
	JOINT rhip
	{
		OFFSET -0.060310 -0.090513 -0.013543
		CHANNELS 3 Zrotation Yrotation Xrotation
		JOINT rknee
		{
			OFFSET -0.043257 -0.383688 -0.004843
			CHANNELS 3 Zrotation Yrotation Xrotation
			JOINT rankle
			{
				OFFSET 0.019056 -0.420046 -0.034562
				CHANNELS 3 Zrotation Yrotation Xrotation
				JOINT rtoe
				{
					OFFSET -0.034840 -0.062106 0.130323
					CHANNELS 3 Zrotation Yrotation Xrotation
					End Site
					{
						OFFSET 0.000000 0.000000 0.000000
					}
				}
			}
		}
	}
	JOINT lowerback
	{
		OFFSET 0.004439 0.124404 -0.038385
		CHANNELS 3 Zrotation Yrotation Xrotation
		JOINT upperback
		{
			OFFSET 0.004488 0.137956 0.026820
			CHANNELS 3 Zrotation Yrotation Xrotation
			JOINT chest
			{
				OFFSET -0.002265 0.056032 0.002855
				CHANNELS 3 Zrotation Yrotation Xrotation
				JOINT lowerneck
				{
					OFFSET -0.013390 0.211636 -0.033468
					CHANNELS 3 Zrotation Yrotation Xrotation
					JOINT upperneck
					{
						OFFSET 0.010113 0.088937 0.050410
						CHANNELS 3 Zrotation Yrotation Xrotation
						End Site
						{
							OFFSET 0.000000 0.000000 0.000000
						}
					}
				}
				JOINT lclavicle
				{
					OFFSET 0.071702 0.114000 -0.018898
					CHANNELS 3 Zrotation Yrotation Xrotation
					JOINT lshoulder
					{
						OFFSET 0.122921 0.045205 -0.019046
						CHANNELS 3 Zrotation Yrotation Xrotation
						JOINT lelbow
						{
							OFFSET 0.255332 -0.015649 -0.022946
							CHANNELS 3 Zrotation Yrotation Xrotation
							JOINT lwrist
							{
								OFFSET 0.265709 0.012698 -0.007375
								CHANNELS 3 Zrotation Yrotation Xrotation
								End Site
								{
									OFFSET 0.000000 0.000000 0.000000
								}
							}
						}
					}
				}
				JOINT rclavicle
				{
					OFFSET -0.082954 0.112472 -0.023707
					CHANNELS 3 Zrotation Yrotation Xrotation
					JOINT rshoulder
					{
						OFFSET -0.113228 0.046853 -0.008472
						CHANNELS 3 Zrotation Yrotation Xrotation
						JOINT relbow
						{
							OFFSET -0.260127 -0.014369 -0.031269
							CHANNELS 3 Zrotation Yrotation Xrotation
							JOINT rwrist
							{
								OFFSET -0.269108 0.006794 -0.006027
								CHANNELS 3 Zrotation Yrotation Xrotation
								End Site
								{
									OFFSET 0.000000 0.000000 0.000000
								}
							}
						}
					}
				}
			}
		}
	}
}
MOTION
Frames: 12
Frame Time: 0.033333
-0.128927 0.499530 0.841893 -5.597459 0.776375 85.752890 7.790967 2.025631 -26.372447 -10.327175 2.948222 59.407148 6.829232 13.932504 -36.650764 0.000000 -0.000000 0.000000 -5.745071 -3.395964 -32.480187 2.012486 -4.106010 65.840848 -1.067210 -11.415287 -33.095244 0.000000 -0.000000 0.000000 -2.993180 0.973636 19.325671 2.675891 -2.489224 -2.043218 -0.335048 0.234210 3.234342 6.196729 1.004545 -12.211832 -0.797165 -13.344761 4.498258 -2.687992 -22.060978 -14.595970 -7.105067 -26.855943 -5.465174 39.474331 -65.278698 -23.423972 8.170559 -16.232091 2.454474 3.112602 27.118496 -13.550364 9.973792 36.915485 -8.933991 -34.957019 56.013526 -21.011945 8.466356 10.032933 1.512410 
-0.128756 0.499689 0.842651 -5.701531 0.756572 85.769432 7.840720 1.931592 -26.237541 -10.221118 3.165684 59.110174 6.852447 13.879004 -36.486254 0.000000 -0.000000 0.000000 -5.837904 -3.257022 -32.408832 2.023957 -4.198720 65.647145 -0.999215 -11.327771 -32.993403 0.000000 -0.000000 0.000000 -3.066361 1.072708 19.028979 2.829322 -2.482982 -1.712227 -0.373292 0.204358 3.319716 6.214611 0.973590 -12.085703 -0.852357 -13.509103 3.836423 -3.112426 -21.836290 -14.572588 -6.943436 -27.186659 -5.229439 39.229439 -65.155499 -23.272922 8.174972 -16.598182 2.537008 3.278475 26.830890 -13.447638 9.878404 37.228969 -8.843261 -34.857459 56.078728 -20.686871 8.660161 10.035085 1.255248 
-0.128548 0.499856 0.844049 -5.698467 0.783006 85.802818 7.816150 1.827671 -26.121067 -10.257689 3.067845 58.790447 6.754398 13.970104 -36.405992 0.000000 -0.000000 0.000000 -5.885309 -3.309543 -32.265171 2.141536 -4.253485 65.287524 -0.946973 -11.258289 -32.819111 0.000000 -0.000000 0.000000 -3.015550 1.046991 18.911894 2.832401 -2.500779 -1.582412 -0.388665 0.181490 3.341521 6.186501 0.751027 -12.195779 -1.003145 -13.720686 3.950744 -3.132886 -21.822092 -14.441239 -6.996626 -27.002076 -5.173837 39.665471 -65.292538 -23.605879 8.094859 -16.283026 2.717275 3.217379 26.767291 -13.478036 9.958482 37.204064 -8.853916 -34.659839 56.172519 -20.430725 9.073338 9.876908 1.341295 
-0.128309 0.500440 0.846215 -5.718030 0.843724 86.058324 7.781952 1.934419 -26.215911 -10.332622 2.844478 58.391809 6.717759 14.001028 -36.153715 0.000000 -0.000000 0.000000 -5.877253 -3.281354 -32.302493 2.262678 -4.337960 64.748549 -0.905649 -11.192221 -32.572938 0.000000 -0.000000 0.000000 -2.920307 0.970055 18.847339 2.806606 -2.485111 -1.827161 -0.393491 0.162318 3.313030 6.177782 0.642948 -11.987524 -1.063373 -13.729325 3.826129 -3.142602 -21.649693 -14.565834 -7.016108 -27.078574 -5.104561 38.624163 -65.361707 -23.128231 8.316242 -15.905374 2.846759 3.184862 26.559817 -13.630566 10.048983 37.287518 -8.712484 -34.168920 56.284580 -20.314643 8.362663 9.879493 1.543512 
-0.128156 0.500747 0.847457 -5.694394 0.845041 86.143674 7.791666 1.924454 -26.148091 -10.299449 2.875580 58.051711 6.735115 13.865790 -35.981620 0.000000 -0.000000 0.000000 -5.865072 -3.373757 -32.264591 2.227150 -4.326886 64.470968 -0.919134 -11.086725 -32.563576 0.000000 -0.000000 0.000000 -2.910238 1.008398 18.823325 2.803083 -2.493025 -1.767645 -0.360487 0.148423 3.273158 6.134148 0.539198 -11.930816 -1.039789 -13.608926 3.642798 -2.983680 -21.611497 -14.590629 -7.229540 -27.067732 -5.011354 38.881603 -65.278189 -23.119801 8.412347 -16.257459 2.765807 2.940253 26.454118 -13.772828 10.094921 37.177876 -8.732288 -34.294980 56.280547 -20.263387 8.798369 9.831135 1.490436 
-0.128118 0.501383 0.848729 -5.688802 0.822736 86.253924 7.775632 1.907420 -26.119522 -10.102301 2.986009 57.677931 6.697841 13.677665 -35.793937 0.000000 -0.000000 0.000000 -5.929391 -3.376162 -32.248403 2.309284 -4.390880 64.120096 -0.855587 -11.021107 -32.360288 0.000000 -0.000000 0.000000 -2.943128 0.981016 18.893377 2.802197 -2.518571 -1.962373 -0.366571 0.145013 3.275930 6.111765 0.487189 -11.891691 -0.936247 -13.731456 3.699148 -2.919780 -21.543496 -14.474715 -7.081008 -26.980475 -4.961722 38.809057 -65.142473 -22.942620 9.055813 -16.805945 2.368425 2.934949 26.485580 -13.753514 9.818982 37.216823 -8.845923 -34.193381 56.146738 -20.349745 7.676754 10.204477 1.357062 
-0.127948 0.501689 0.849281 -5.749484 0.831139 86.287278 7.788780 1.927055 -26.125954 -10.107743 3.003390 57.599688 6.655074 13.707559 -35.740323 0.000000 -0.000000 0.000000 -5.872011 -3.445852 -32.243055 2.312328 -4.294144 63.956283 -1.018310 -11.045402 -32.194736 0.000000 -0.000000 0.000000 -2.934503 1.026354 18.917768 2.805688 -2.544668 -2.001560 -0.354156 0.136649 3.220210 6.135821 0.608541 -11.736668 -0.936165 -13.611110 3.869865 -2.918858 -21.617875 -14.453987 -6.815867 -26.842223 -5.060524 38.514886 -65.235294 -22.799057 9.075181 -16.797628 2.575759 2.916017 26.464435 -13.734413 9.640002 37.272753 -9.054418 -34.292238 56.095747 -20.429187 7.721721 9.988243 1.455434 
-0.127819 0.501875 0.848841 -5.764008 0.856073 86.272008 7.823658 1.996188 -26.195675 -10.169361 2.990243 57.761866 6.645680 13.641310 -35.773685 0.000000 -0.000000 0.000000 -5.867645 -3.437655 -32.278168 2.307334 -4.317357 64.056072 -0.899015 -10.972643 -32.260862 0.000000 -0.000000 0.000000 -2.911754 1.021304 18.982152 2.825820 -2.553448 -2.043167 -0.376501 0.115086 3.263112 6.125798 0.588198 -11.719624 -0.991294 -13.726989 4.046317 -2.785993 -21.542079 -14.523691 -6.836776 -26.829813 -5.061546 38.559324 -65.292460 -22.819077 9.134576 -16.807713 2.487810 2.800608 26.368056 -13.894820 9.601723 37.331248 -9.125235 -34.294326 56.134428 -20.541279 7.674973 9.989910 1.258428 
-0.127682 0.501910 0.847616 -5.735868 0.867575 86.200629 7.835870 2.033633 -26.281096 -10.108136 3.042628 58.042695 6.694246 13.587157 -35.921307 0.000000 -0.000000 0.000000 -5.890432 -3.393140 -32.385107 2.255755 -4.367990 64.375892 -0.891249 -11.020199 -32.355199 0.000000 -0.000000 0.000000 -2.916584 1.033772 19.038843 2.868276 -2.518101 -1.992925 -0.320409 0.088872 3.272195 6.098513 0.426817 -11.591892 -1.090370 -13.685306 3.852796 -2.766501 -21.520617 -14.552063 -7.022271 -26.923446 -5.003802 38.557538 -65.322472 -22.715346 9.104603 -16.669047 2.459499 2.646898 26.306082 -14.009819 9.659602 37.277750 -9.124212 -34.570878 56.090757 -20.775536 7.557035 9.995560 1.418021 
-0.127590 0.501816 0.845571 -5.773527 0.832651 86.011927 7.846743 2.014921 -26.335484 -10.369438 3.042974 58.514976 6.735846 13.902967 -36.190168 0.000000 -0.000000 0.000000 -5.891228 -3.434362 -32.465003 2.257802 -4.250706 64.878970 -0.903055 -11.117800 -32.643266 0.000000 -0.000000 0.000000 -2.935230 1.006162 19.165703 2.840332 -2.558333 -1.963707 -0.364907 0.103985 3.244954 6.106346 0.473926 -11.472808 -0.952133 -13.649272 4.150103 -2.890548 -21.700717 -14.413811 -6.896659 -26.655171 -4.986754 38.738080 -65.490929 -22.970108 9.217764 -16.312811 2.609365 2.759296 26.512167 -13.824764 9.627869 37.097476 -9.238412 -34.791147 56.138610 -21.016187 7.592104 9.977093 1.449075 
-0.127400 0.501964 0.843740 -5.738880 0.797276 85.861975 7.796193 1.925255 -26.472741 -10.375591 3.082577 59.015502 6.828953 14.021432 -36.355965 0.000000 -0.000000 0.000000 -5.940447 -3.437252 -32.579835 2.232745 -4.222386 65.366621 -0.911688 -11.165769 -32.777287 0.000000 -0.000000 0.000000 -2.954305 1.059961 19.268121 2.871712 -2.530136 -1.993387 -0.371831 0.067779 3.378477 6.153627 0.343505 -11.657918 -1.095423 -13.851428 4.488617 -2.955691 -21.591568 -14.377893 -7.106488 -26.989886 -5.050607 38.547597 -65.369715 -22.763225 8.887522 -16.419444 2.540170 2.840310 26.411927 -13.802718 9.505268 37.133184 -9.247214 -34.667721 56.068689 -20.861230 7.758737 10.049085 1.303989 
-0.127376 0.501839 0.842506 -5.785826 0.778500 85.709725 7.772067 1.970144 -26.437858 -10.253688 3.193037 59.294243 6.882018 14.040863 -36.456035 0.000000 -0.000000 0.000000 -5.899295 -3.318506 -32.557626 2.178656 -4.147414 65.625278 -1.034499 -11.383065 -32.950558 0.000000 -0.000000 0.000000 -2.995064 0.994526 19.323201 2.868369 -2.552587 -1.899840 -0.404063 0.072350 3.326153 6.207866 0.260990 -11.476762 -1.028401 -13.918027 4.480981 -3.167816 -21.698392 -14.190395 -6.954541 -26.698328 -4.987703 38.635375 -65.478402 -22.628607 8.746329 -16.359791 2.596454 3.003980 26.638192 -13.625263 9.531522 36.993748 -9.108871 -34.632397 56.043664 -20.776737 7.705665 10.094512 1.331562 
